<svg viewBox="-81.9 -44 319.8 228"><defs><pattern id="a" width="7" height="7" patternTransform="rotate(45)" patternUnits="userSpaceOnUse"><path stroke="#f1ede4" stroke-opacity=".35" d="M0 0v7"/></pattern></defs><path fill="#2e2b29" stroke="#f1ede4" stroke-linejoin="round" d="M-77.9 45 0 90V50L-77.9 5z"/><path fill="url(#a)" stroke="#f1ede4" stroke-linejoin="round" d="M77.9 45 0 90V50L77.9 5z"/><path fill="#232120" stroke="#f1ede4" stroke-linejoin="round" d="M0-40 77.9 5 0 50-77.9 5z"/><path fill="#2e2b29" stroke="#f1ede4" stroke-linejoin="round" d="m0 90 77.9 45V55L0 10z"/><path fill="url(#a)" stroke="#f1ede4" stroke-linejoin="round" d="m155.9 90-78 45V55l78-45z"/><path fill="#232120" stroke="#f1ede4" stroke-linejoin="round" d="m77.9-35 78 45-78 45L0 10z"/><path fill="#2e2b29" stroke="#f1ede4" stroke-linejoin="round" d="m77.9 135 78 45V60l-78-45z"/><path fill="url(#a)" stroke="#f1ede4" stroke-linejoin="round" d="m233.8 135-77.9 45V60l77.9-45z"/><path fill="#232120" stroke="#f1ede4" stroke-linejoin="round" d="m155.9-30 77.9 45-77.9 45-78-45z"/></svg>