<svg viewBox="-107.9 -94 233.2 228"><defs><pattern id="a" width="7" height="7" patternTransform="rotate(45)" patternUnits="userSpaceOnUse"><path stroke="#262320" stroke-opacity=".35" d="M0 0v7"/></pattern></defs><path fill="#ebe9e4" stroke="#262320" stroke-linejoin="round" d="m-103.9 60 17.3 10v-90l-17.3-10z"/><path fill="url(#a)" stroke="#262320" stroke-linejoin="round" d="M17.3 10-86.6 70v-90L17.3-80z"/><path fill="#f8f7f4" stroke="#262320" stroke-linejoin="round" d="m0-90 17.3 10-103.9 60-17.3-10z"/><path fill="#ebe9e4" stroke="#262320" stroke-linejoin="round" d="m0 120 17.3 10V40L0 30z"/><path fill="url(#a)" stroke="#262320" stroke-linejoin="round" d="M121.2 70 17.3 130V40l103.9-60z"/><path fill="#f8f7f4" stroke="#262320" stroke-linejoin="round" d="m103.9-30 17.3 10L17.3 40 0 30z"/><path fill="#ebe9e4" stroke="#262320" stroke-linejoin="round" d="m-52 60 86.6 50V80L-52 30z"/><path fill="url(#a)" stroke="#262320" stroke-linejoin="round" d="m86.6 80-52 30V80l52-30z"/><path fill="#c73e2c" stroke="#262320" stroke-linejoin="round" d="m0 0 86.6 50-52 30L-52 30z"/></svg>