<svg viewBox="-107.9 -32.5 202.9 141.5"><defs><pattern id="a" width="7" height="7" patternTransform="rotate(45)" patternUnits="userSpaceOnUse"><path stroke="#1f2a24" stroke-opacity=".35" d="M0 0v7"/></pattern></defs><path fill="#e4dccb" stroke="#1f2a24" stroke-linejoin="round" d="m-103.9 60 77.9 45v-3l-77.9-45z"/><path fill="url(#a)" stroke="#1f2a24" stroke-linejoin="round" d="M77.9 45-26 105v-3L77.9 42z"/><path fill="#f6f1e6" stroke="#1f2a24" stroke-linejoin="round" d="m0-3 77.9 45L-26 102l-77.9-45z"/><path fill="#e4dccb" stroke="#1f2a24" stroke-linejoin="round" d="m-99.6 51.5 78 45v-3l-78-45z"/><path fill="url(#a)" stroke="#1f2a24" stroke-linejoin="round" d="m82.3 36.5-103.9 60v-3l103.9-60z"/><path fill="#f6f1e6" stroke="#1f2a24" stroke-linejoin="round" d="m4.3-11.5 78 45-103.9 60-78-45z"/><path fill="#e4dccb" stroke="#1f2a24" stroke-linejoin="round" d="m-95.3 43 78 45v-3l-78-45z"/><path fill="url(#a)" stroke="#1f2a24" stroke-linejoin="round" d="M86.6 28-17.3 88v-3L86.6 25z"/><path fill="#f6f1e6" stroke="#1f2a24" stroke-linejoin="round" d="m8.7-20 77.9 45-103.9 60-78-45z"/><path fill="#e4dccb" stroke="#1f2a24" stroke-linejoin="round" d="m-90.9 34.5 77.9 45v-3l-77.9-45z"/><path fill="url(#a)" stroke="#1f2a24" stroke-linejoin="round" d="M90.9 19.5-13 79.5v-3l103.9-60z"/><path fill="#f6f1e6" stroke="#1f2a24" stroke-linejoin="round" d="m13-28.5 77.9 45-103.9 60-77.9-45z"/></svg>